%TF.GenerationSoftware,KiCad,Pcbnew,8.0.8*%
%TF.CreationDate,2025-02-11T14:17:18-06:00*%
%TF.ProjectId,IR Demo FeatherWing,49522044-656d-46f2-9046-656174686572,rev?*%
%TF.SameCoordinates,Original*%
%TF.FileFunction,Soldermask,Bot*%
%TF.FilePolarity,Negative*%
%FSLAX46Y46*%
G04 Gerber Fmt 4.6, Leading zero omitted, Abs format (unit mm)*
G04 Created by KiCad (PCBNEW 8.0.8) date 2025-02-11 14:17:18*
%MOMM*%
%LPD*%
G01*
G04 APERTURE LIST*
%ADD10C,1.000000*%
%ADD11R,1.700000X1.700000*%
%ADD12O,1.700000X1.700000*%
%ADD13C,2.700000*%
%ADD14C,1.800000*%
G04 APERTURE END LIST*
D10*
%TO.C,J3*%
X145418000Y-131100000D03*
X153418000Y-131100000D03*
%TD*%
D11*
%TO.C,J2*%
X134874000Y-86106000D03*
D12*
X134874000Y-88646000D03*
X134874000Y-91186000D03*
X134874000Y-93726000D03*
X134874000Y-96266000D03*
X134874000Y-98806000D03*
X134874000Y-101346000D03*
X134874000Y-103886000D03*
%TD*%
D11*
%TO.C,J1*%
X165354000Y-91186000D03*
D12*
X165354000Y-93726000D03*
X165354000Y-96266000D03*
X165354000Y-98806000D03*
X165354000Y-101346000D03*
X165354000Y-103886000D03*
%TD*%
D13*
%TO.C,H4*%
X165100000Y-130302000D03*
%TD*%
%TO.C,H3*%
X135128000Y-130302000D03*
%TD*%
D14*
%TO.C,A1*%
X160274000Y-91186000D03*
X160274000Y-93726000D03*
X160274000Y-96266000D03*
X160274000Y-98806000D03*
X160274000Y-101346000D03*
X160274000Y-103886000D03*
X160274000Y-106426000D03*
X160274000Y-108966000D03*
X160274000Y-111506000D03*
X160274000Y-114046000D03*
X160274000Y-116586000D03*
X160274000Y-119126000D03*
X139954000Y-119126000D03*
X139954000Y-116586000D03*
X139954000Y-114046000D03*
X139954000Y-111506000D03*
X139954000Y-108966000D03*
X139954000Y-106426000D03*
X139954000Y-103886000D03*
X139954000Y-101346000D03*
X139954000Y-98806000D03*
X139954000Y-96266000D03*
X139954000Y-93726000D03*
X139954000Y-91186000D03*
X139954000Y-88646000D03*
X139954000Y-86106000D03*
X139954000Y-83566000D03*
X139954000Y-81026000D03*
%TD*%
D13*
%TO.C,H2*%
X165100000Y-77470000D03*
%TD*%
%TO.C,H1*%
X135128000Y-77470000D03*
%TD*%
M02*
