M48
; DRILL file {KiCad 8.0.8} date 2025-02-11T14:17:21-0600
; FORMAT={-:-/ absolute / inch / decimal}
; #@! TF.CreationDate,2025-02-11T14:17:21-06:00
; #@! TF.GenerationSoftware,Kicad,Pcbnew,8.0.8
; #@! TF.FileFunction,Plated,1,2,PTH
FMAT,2
INCH
; #@! TA.AperFunction,Plated,PTH,ViaDrill
T1C0.0118
; #@! TA.AperFunction,Plated,PTH,ViaDrill
T2C0.0157
; #@! TA.AperFunction,Plated,PTH,ComponentDrill
T3C0.0394
%
G90
G05
T1
X5.65Y-4.51
X5.69Y-4.55
X5.71Y-4.45
X5.72Y-4.58
X5.735Y-4.335
X5.735Y-4.375
X5.7487Y-4.61
X5.75Y-4.49
X5.78Y-4.52
X5.8Y-4.62
X5.81Y-4.55
X5.84Y-4.58
X6.13Y-4.48
X6.22Y-4.48
T2
X5.2892Y-4.74
X5.43Y-3.47
X5.43Y-4.14
X5.43Y-4.33
X5.43Y-4.89
X5.56Y-4.78
X5.7Y-3.29
X5.71Y-3.14
X5.81Y-3.05
X5.91Y-5.12
X5.97Y-3.29
X6.11Y-3.23
X6.25Y-4.7992
X6.45Y-4.28
X6.45Y-4.74
X6.55Y-4.47
T3
X5.31Y-3.39
X5.31Y-3.49
X5.31Y-3.59
X5.31Y-3.69
X5.31Y-3.79
X5.31Y-3.89
X5.31Y-3.99
X5.31Y-4.09
X5.51Y-3.19
X5.51Y-3.29
X5.51Y-3.39
X5.51Y-3.49
X5.51Y-3.59
X5.51Y-3.69
X5.51Y-3.79
X5.51Y-3.89
X5.51Y-3.99
X5.51Y-4.09
X5.51Y-4.19
X5.51Y-4.29
X5.51Y-4.39
X5.51Y-4.49
X5.51Y-4.59
X5.51Y-4.69
X6.31Y-3.59
X6.31Y-3.69
X6.31Y-3.79
X6.31Y-3.89
X6.31Y-3.99
X6.31Y-4.09
X6.31Y-4.19
X6.31Y-4.29
X6.31Y-4.39
X6.31Y-4.49
X6.31Y-4.59
X6.31Y-4.69
X6.51Y-3.59
X6.51Y-3.69
X6.51Y-3.79
X6.51Y-3.89
X6.51Y-3.99
X6.51Y-4.09
M30
