%TF.GenerationSoftware,KiCad,Pcbnew,8.0.8*%
%TF.CreationDate,2025-02-11T14:17:18-06:00*%
%TF.ProjectId,IR Demo FeatherWing,49522044-656d-46f2-9046-656174686572,rev?*%
%TF.SameCoordinates,Original*%
%TF.FileFunction,Copper,L1,Top*%
%TF.FilePolarity,Positive*%
%FSLAX46Y46*%
G04 Gerber Fmt 4.6, Leading zero omitted, Abs format (unit mm)*
G04 Created by KiCad (PCBNEW 8.0.8) date 2025-02-11 14:17:18*
%MOMM*%
%LPD*%
G01*
G04 APERTURE LIST*
G04 Aperture macros list*
%AMRoundRect*
0 Rectangle with rounded corners*
0 $1 Rounding radius*
0 $2 $3 $4 $5 $6 $7 $8 $9 X,Y pos of 4 corners*
0 Add a 4 corners polygon primitive as box body*
4,1,4,$2,$3,$4,$5,$6,$7,$8,$9,$2,$3,0*
0 Add four circle primitives for the rounded corners*
1,1,$1+$1,$2,$3*
1,1,$1+$1,$4,$5*
1,1,$1+$1,$6,$7*
1,1,$1+$1,$8,$9*
0 Add four rect primitives between the rounded corners*
20,1,$1+$1,$2,$3,$4,$5,0*
20,1,$1+$1,$4,$5,$6,$7,0*
20,1,$1+$1,$6,$7,$8,$9,0*
20,1,$1+$1,$8,$9,$2,$3,0*%
G04 Aperture macros list end*
%TA.AperFunction,SMDPad,CuDef*%
%ADD10R,0.700000X1.600000*%
%TD*%
%TA.AperFunction,SMDPad,CuDef*%
%ADD11R,1.200000X1.800000*%
%TD*%
%TA.AperFunction,SMDPad,CuDef*%
%ADD12R,1.200000X2.200000*%
%TD*%
%TA.AperFunction,SMDPad,CuDef*%
%ADD13R,1.600000X1.500000*%
%TD*%
%TA.AperFunction,ComponentPad*%
%ADD14R,1.700000X1.700000*%
%TD*%
%TA.AperFunction,ComponentPad*%
%ADD15O,1.700000X1.700000*%
%TD*%
%TA.AperFunction,SMDPad,CuDef*%
%ADD16RoundRect,0.250000X0.337500X0.475000X-0.337500X0.475000X-0.337500X-0.475000X0.337500X-0.475000X0*%
%TD*%
%TA.AperFunction,SMDPad,CuDef*%
%ADD17RoundRect,0.250000X-0.350000X-0.450000X0.350000X-0.450000X0.350000X0.450000X-0.350000X0.450000X0*%
%TD*%
%TA.AperFunction,SMDPad,CuDef*%
%ADD18RoundRect,0.250000X-0.337500X-0.475000X0.337500X-0.475000X0.337500X0.475000X-0.337500X0.475000X0*%
%TD*%
%TA.AperFunction,SMDPad,CuDef*%
%ADD19RoundRect,0.250000X0.350000X0.450000X-0.350000X0.450000X-0.350000X-0.450000X0.350000X-0.450000X0*%
%TD*%
%TA.AperFunction,ComponentPad*%
%ADD20C,1.800000*%
%TD*%
%TA.AperFunction,SMDPad,CuDef*%
%ADD21RoundRect,0.250000X0.475000X-0.337500X0.475000X0.337500X-0.475000X0.337500X-0.475000X-0.337500X0*%
%TD*%
%TA.AperFunction,SMDPad,CuDef*%
%ADD22RoundRect,0.250000X0.450000X-0.350000X0.450000X0.350000X-0.450000X0.350000X-0.450000X-0.350000X0*%
%TD*%
%TA.AperFunction,SMDPad,CuDef*%
%ADD23R,0.640000X1.270000*%
%TD*%
%TA.AperFunction,SMDPad,CuDef*%
%ADD24R,1.270000X0.640000*%
%TD*%
%TA.AperFunction,ViaPad*%
%ADD25C,0.800000*%
%TD*%
%TA.AperFunction,ViaPad*%
%ADD26C,0.600000*%
%TD*%
%TA.AperFunction,Conductor*%
%ADD27C,0.200000*%
%TD*%
%TA.AperFunction,Conductor*%
%ADD28C,0.500000*%
%TD*%
G04 APERTURE END LIST*
D10*
%TO.P,J3,1,DAT2*%
%TO.N,/SD_DAT2*%
X152618000Y-120100000D03*
%TO.P,J3,2,DAT3/CD*%
%TO.N,/SPI_CS*%
X151518000Y-120100000D03*
%TO.P,J3,3,CMD*%
%TO.N,/SPI_MOSI*%
X150418000Y-120100000D03*
%TO.P,J3,4,VDD*%
%TO.N,VCC*%
X149318000Y-120100000D03*
%TO.P,J3,5,CLK*%
%TO.N,/SPI_SCK*%
X148218000Y-120100000D03*
%TO.P,J3,6,VSS*%
%TO.N,GND*%
X147118000Y-120100000D03*
%TO.P,J3,7,DAT0*%
%TO.N,/SPI_MISO*%
X146018000Y-120100000D03*
%TO.P,J3,8,DAT1*%
%TO.N,/SD_DAT1*%
X144918000Y-120100000D03*
%TO.P,J3,9,DET*%
%TO.N,/SPI_CD*%
X143818000Y-120100000D03*
D11*
%TO.P,J3,10,SHIELD*%
%TO.N,GND*%
X142618000Y-121400000D03*
D12*
X142618000Y-130700000D03*
D13*
X157218000Y-121150000D03*
D12*
X158118000Y-130700000D03*
%TD*%
D14*
%TO.P,J2,1,Pin_1*%
%TO.N,/~{RESET}*%
X134874000Y-86106000D03*
D15*
%TO.P,J2,2,Pin_2*%
%TO.N,VCC*%
X134874000Y-88646000D03*
%TO.P,J2,3,Pin_3*%
%TO.N,/GPIO18*%
X134874000Y-91186000D03*
%TO.P,J2,4,Pin_4*%
%TO.N,/GPIO17*%
X134874000Y-93726000D03*
%TO.P,J2,5,Pin_5*%
%TO.N,/GPIO16*%
X134874000Y-96266000D03*
%TO.P,J2,6,Pin_6*%
%TO.N,/GPIO15*%
X134874000Y-98806000D03*
%TO.P,J2,7,Pin_7*%
%TO.N,/GPIO14*%
X134874000Y-101346000D03*
%TO.P,J2,8,Pin_8*%
%TO.N,GND*%
X134874000Y-103886000D03*
%TD*%
D14*
%TO.P,J1,1,Pin_1*%
%TO.N,/VBAT*%
X165354000Y-91186000D03*
D15*
%TO.P,J1,2,Pin_2*%
%TO.N,/EN*%
X165354000Y-93726000D03*
%TO.P,J1,3,Pin_3*%
%TO.N,/VBUS*%
X165354000Y-96266000D03*
%TO.P,J1,4,Pin_4*%
%TO.N,GND*%
X165354000Y-98806000D03*
%TO.P,J1,5,Pin_5*%
%TO.N,/SCL*%
X165354000Y-101346000D03*
%TO.P,J1,6,Pin_6*%
%TO.N,/SDA*%
X165354000Y-103886000D03*
%TD*%
D16*
%TO.P,C4,1*%
%TO.N,VCC*%
X136419500Y-109982000D03*
%TO.P,C4,2*%
%TO.N,GND*%
X134344500Y-109982000D03*
%TD*%
D17*
%TO.P,R3,1*%
%TO.N,VCC*%
X151908000Y-79756000D03*
%TO.P,R3,2*%
%TO.N,Net-(U1-IRED)*%
X153908000Y-79756000D03*
%TD*%
D18*
%TO.P,C6,1*%
%TO.N,VCC*%
X163808500Y-121920000D03*
%TO.P,C6,2*%
%TO.N,GND*%
X165883500Y-121920000D03*
%TD*%
D19*
%TO.P,R12,1*%
%TO.N,VCC*%
X156702000Y-103378000D03*
%TO.P,R12,2*%
%TO.N,/SD_DAT1*%
X154702000Y-103378000D03*
%TD*%
%TO.P,R9,1*%
%TO.N,VCC*%
X156702000Y-110236000D03*
%TO.P,R9,2*%
%TO.N,/SPI_MOSI*%
X154702000Y-110236000D03*
%TD*%
D17*
%TO.P,R14,1*%
%TO.N,VCC*%
X154702000Y-117094000D03*
%TO.P,R14,2*%
%TO.N,/~{IR2_EN}*%
X156702000Y-117094000D03*
%TD*%
D19*
%TO.P,R4,1*%
%TO.N,VCC*%
X136382000Y-112268000D03*
%TO.P,R4,2*%
%TO.N,Net-(U2-IRED)*%
X134382000Y-112268000D03*
%TD*%
D16*
%TO.P,C1,1*%
%TO.N,Net-(U1-VCC)*%
X148357500Y-79756000D03*
%TO.P,C1,2*%
%TO.N,GND*%
X146282500Y-79756000D03*
%TD*%
D20*
%TO.P,A1,28,VBAT*%
%TO.N,/VBAT*%
X160274000Y-91186000D03*
%TO.P,A1,27,EN*%
%TO.N,/EN*%
X160274000Y-93726000D03*
%TO.P,A1,26,VBUS*%
%TO.N,/VBUS*%
X160274000Y-96266000D03*
%TO.P,A1,25,D13*%
%TO.N,/SPI_CD*%
X160274000Y-98806000D03*
%TO.P,A1,24,D12*%
%TO.N,/SD_DAT1*%
X160274000Y-101346000D03*
%TO.P,A1,23,D11*%
%TO.N,/SPI_CS*%
X160274000Y-103886000D03*
%TO.P,A1,22,D10*%
%TO.N,/SD_DAT2*%
X160274000Y-106426000D03*
%TO.P,A1,21,D9*%
%TO.N,/~{IR2_EN}*%
X160274000Y-108966000D03*
%TO.P,A1,20,D6*%
%TO.N,/IR2_RX*%
X160274000Y-111506000D03*
%TO.P,A1,19,D5*%
%TO.N,/IR2_TX*%
X160274000Y-114046000D03*
%TO.P,A1,18,SCL*%
%TO.N,/SCL*%
X160274000Y-116586000D03*
%TO.P,A1,17,SDA*%
%TO.N,/SDA*%
X160274000Y-119126000D03*
%TO.P,A1,16,TXD0*%
%TO.N,unconnected-(A1-TXD0-Pad16)*%
X139954000Y-119126000D03*
%TO.P,A1,15,TX*%
%TO.N,/IR1_TX*%
X139954000Y-116586000D03*
%TO.P,A1,14,RX*%
%TO.N,/IR1_RX*%
X139954000Y-114046000D03*
%TO.P,A1,13,MISO*%
%TO.N,/SPI_MISO*%
X139954000Y-111506000D03*
%TO.P,A1,12,MOSI*%
%TO.N,/SPI_MOSI*%
X139954000Y-108966000D03*
%TO.P,A1,11,SCK*%
%TO.N,/SPI_SCK*%
X139954000Y-106426000D03*
%TO.P,A1,10,A5*%
%TO.N,/~{IR1_EN}*%
X139954000Y-103886000D03*
%TO.P,A1,9,A4*%
%TO.N,/GPIO14*%
X139954000Y-101346000D03*
%TO.P,A1,8,A3*%
%TO.N,/GPIO15*%
X139954000Y-98806000D03*
%TO.P,A1,7,A2*%
%TO.N,/GPIO16*%
X139954000Y-96266000D03*
%TO.P,A1,6,A1*%
%TO.N,/GPIO17*%
X139954000Y-93726000D03*
%TO.P,A1,5,A0*%
%TO.N,/GPIO18*%
X139954000Y-91186000D03*
%TO.P,A1,4,GND*%
%TO.N,GND*%
X139954000Y-88646000D03*
%TO.P,A1,3,3V3*%
%TO.N,VCC*%
X139954000Y-86106000D03*
%TO.P,A1,2,3V3*%
X139954000Y-83566000D03*
%TO.P,A1,1,~{RESET}*%
%TO.N,/~{RESET}*%
X139954000Y-81026000D03*
%TD*%
D21*
%TO.P,C7,1*%
%TO.N,VCC*%
X160528000Y-123973500D03*
%TO.P,C7,2*%
%TO.N,GND*%
X160528000Y-121898500D03*
%TD*%
D18*
%TO.P,C5,1*%
%TO.N,Net-(U3-VCC)*%
X163808500Y-112268000D03*
%TO.P,C5,2*%
%TO.N,GND*%
X165883500Y-112268000D03*
%TD*%
%TO.P,C3,1*%
%TO.N,VCC*%
X151870500Y-82042000D03*
%TO.P,C3,2*%
%TO.N,GND*%
X153945500Y-82042000D03*
%TD*%
D19*
%TO.P,R2,1*%
%TO.N,VCC*%
X136382000Y-124206000D03*
%TO.P,R2,2*%
%TO.N,Net-(U2-VCC)*%
X134382000Y-124206000D03*
%TD*%
%TO.P,R8,1*%
%TO.N,VCC*%
X156702000Y-112522000D03*
%TO.P,R8,2*%
%TO.N,/SPI_CS*%
X154702000Y-112522000D03*
%TD*%
D17*
%TO.P,R13,1*%
%TO.N,VCC*%
X163846000Y-124206000D03*
%TO.P,R13,2*%
%TO.N,Net-(U3-IRED)*%
X165846000Y-124206000D03*
%TD*%
D19*
%TO.P,R11,1*%
%TO.N,VCC*%
X156702000Y-105664000D03*
%TO.P,R11,2*%
%TO.N,/SPI_MISO*%
X154702000Y-105664000D03*
%TD*%
D22*
%TO.P,R5,1*%
%TO.N,VCC*%
X144018000Y-105902000D03*
%TO.P,R5,2*%
%TO.N,/~{IR1_EN}*%
X144018000Y-103902000D03*
%TD*%
D23*
%TO.P,U1,1,IRED*%
%TO.N,Net-(U1-IRED)*%
X152489000Y-76200000D03*
%TO.P,U1,2,TXD*%
%TO.N,/IR1_TX*%
X151539000Y-76200000D03*
%TO.P,U1,3,RXD*%
%TO.N,/IR1_RX*%
X150589000Y-76200000D03*
%TO.P,U1,4,SD*%
%TO.N,/~{IR1_EN}*%
X149639000Y-76200000D03*
%TO.P,U1,5,VCC*%
%TO.N,Net-(U1-VCC)*%
X148689000Y-76200000D03*
%TO.P,U1,6,GND*%
%TO.N,GND*%
X147739000Y-76200000D03*
%TD*%
D16*
%TO.P,C2,1*%
%TO.N,Net-(U2-VCC)*%
X136419500Y-121920000D03*
%TO.P,C2,2*%
%TO.N,GND*%
X134344500Y-121920000D03*
%TD*%
D17*
%TO.P,R6,1*%
%TO.N,VCC*%
X163846000Y-109982000D03*
%TO.P,R6,2*%
%TO.N,Net-(U3-VCC)*%
X165846000Y-109982000D03*
%TD*%
D19*
%TO.P,R7,1*%
%TO.N,VCC*%
X156702000Y-114808000D03*
%TO.P,R7,2*%
%TO.N,/SD_DAT2*%
X154702000Y-114808000D03*
%TD*%
D17*
%TO.P,R1,1*%
%TO.N,VCC*%
X146320000Y-82042000D03*
%TO.P,R1,2*%
%TO.N,Net-(U1-VCC)*%
X148320000Y-82042000D03*
%TD*%
D19*
%TO.P,R10,1*%
%TO.N,VCC*%
X156702000Y-107950000D03*
%TO.P,R10,2*%
%TO.N,/SPI_SCK*%
X154702000Y-107950000D03*
%TD*%
D24*
%TO.P,U3,1,IRED*%
%TO.N,Net-(U3-IRED)*%
X166370000Y-119469000D03*
%TO.P,U3,2,TXD*%
%TO.N,/IR2_TX*%
X166370000Y-118519000D03*
%TO.P,U3,3,RXD*%
%TO.N,/IR2_RX*%
X166370000Y-117569000D03*
%TO.P,U3,4,SD*%
%TO.N,/~{IR2_EN}*%
X166370000Y-116619000D03*
%TO.P,U3,5,VCC*%
%TO.N,Net-(U3-VCC)*%
X166370000Y-115669000D03*
%TO.P,U3,6,GND*%
%TO.N,GND*%
X166370000Y-114719000D03*
%TD*%
%TO.P,U2,1,IRED*%
%TO.N,Net-(U2-IRED)*%
X133858000Y-114719000D03*
%TO.P,U2,2,TXD*%
%TO.N,/IR1_TX*%
X133858000Y-115669000D03*
%TO.P,U2,3,RXD*%
%TO.N,/IR1_RX*%
X133858000Y-116619000D03*
%TO.P,U2,4,SD*%
%TO.N,/~{IR1_EN}*%
X133858000Y-117569000D03*
%TO.P,U2,5,VCC*%
%TO.N,Net-(U2-VCC)*%
X133858000Y-118519000D03*
%TO.P,U2,6,GND*%
%TO.N,GND*%
X133858000Y-119469000D03*
%TD*%
D25*
%TO.N,VCC*%
X137922000Y-88138000D03*
D26*
%TO.N,/SD_DAT2*%
X155702000Y-113792000D03*
X157988000Y-113792000D03*
%TO.N,/IR1_TX*%
X145669000Y-111125000D03*
%TO.N,/IR1_RX*%
X145669000Y-110109000D03*
D25*
%TO.N,VCC*%
X137922000Y-124206000D03*
X151638000Y-83566000D03*
X144780000Y-83566000D03*
X163830000Y-108712000D03*
X137922000Y-105156000D03*
X137922000Y-109982000D03*
X163830000Y-120396000D03*
%TO.N,GND*%
X134344500Y-120396000D03*
X147574000Y-77470000D03*
X155194000Y-82042000D03*
X141224000Y-121412000D03*
X150114000Y-130048000D03*
X166370000Y-113538000D03*
X145034000Y-79756000D03*
X158750000Y-121898500D03*
D26*
%TO.N,/SPI_SCK*%
X147320000Y-117348000D03*
X148336000Y-116332000D03*
%TO.N,/~{IR1_EN}*%
X143510000Y-114554000D03*
X145034000Y-113030000D03*
%TO.N,/SPI_MISO*%
X146018000Y-117094000D03*
X147574000Y-115570000D03*
%TO.N,/SPI_CD*%
X144526000Y-115570000D03*
X146050000Y-114046000D03*
%TO.N,/SD_DAT1*%
X146812000Y-114808000D03*
X145288000Y-116332000D03*
%TD*%
D27*
%TO.N,/~{IR1_EN}*%
X133858000Y-117569000D02*
X136619000Y-117569000D01*
X139376000Y-120326000D02*
X140532000Y-120326000D01*
X140532000Y-120326000D02*
X141732000Y-119126000D01*
X136619000Y-117569000D02*
X139376000Y-120326000D01*
X141732000Y-119126000D02*
X141732000Y-116332000D01*
X141732000Y-116332000D02*
X143510000Y-114554000D01*
D28*
%TO.N,GND*%
X134344500Y-109982000D02*
X134344500Y-104415500D01*
X134344500Y-104415500D02*
X134874000Y-103886000D01*
D27*
%TO.N,/GPIO14*%
X134874000Y-101346000D02*
X139954000Y-101346000D01*
%TO.N,/GPIO15*%
X134874000Y-98806000D02*
X139954000Y-98806000D01*
%TO.N,/GPIO16*%
X134874000Y-96266000D02*
X139954000Y-96266000D01*
%TO.N,/GPIO17*%
X134874000Y-93726000D02*
X139954000Y-93726000D01*
%TO.N,/GPIO18*%
X134874000Y-91186000D02*
X139954000Y-91186000D01*
D28*
%TO.N,VCC*%
X137922000Y-88138000D02*
X135382000Y-88138000D01*
X135382000Y-88138000D02*
X134874000Y-88646000D01*
D27*
%TO.N,/~{RESET}*%
X134874000Y-86106000D02*
X139954000Y-81026000D01*
D28*
%TO.N,/VBUS*%
X160274000Y-96266000D02*
X165354000Y-96266000D01*
D27*
%TO.N,/EN*%
X160274000Y-93726000D02*
X165354000Y-93726000D01*
D28*
%TO.N,/VBAT*%
X160274000Y-91186000D02*
X165354000Y-91186000D01*
D27*
%TO.N,/SPI_CS*%
X154702000Y-112522000D02*
X155702000Y-111522000D01*
X155702000Y-111522000D02*
X155702000Y-102793256D01*
X158750000Y-102362000D02*
X160274000Y-103886000D01*
X155702000Y-102793256D02*
X156133256Y-102362000D01*
X156133256Y-102362000D02*
X158750000Y-102362000D01*
%TO.N,/SD_DAT2*%
X157988000Y-113792000D02*
X157988000Y-108712000D01*
X157988000Y-108712000D02*
X160274000Y-106426000D01*
%TO.N,/~{IR2_EN}*%
X158750000Y-115046000D02*
X158750000Y-110490000D01*
%TO.N,/SPI_MOSI*%
X140011686Y-108966000D02*
X148364843Y-117319157D01*
%TO.N,/~{IR2_EN}*%
X158750000Y-110490000D02*
X160274000Y-108966000D01*
%TO.N,/IR1_TX*%
X139037000Y-115669000D02*
X139954000Y-116586000D01*
X133858000Y-115669000D02*
X139037000Y-115669000D01*
%TO.N,/~{IR2_EN}*%
X166370000Y-116619000D02*
X165535000Y-116619000D01*
X161798000Y-112882000D02*
X161798000Y-110490000D01*
%TO.N,/IR2_TX*%
X160274000Y-114046000D02*
X160381500Y-114046000D01*
%TO.N,/IR1_RX*%
X133858000Y-116619000D02*
X138209000Y-116619000D01*
%TO.N,/SPI_MISO*%
X141420314Y-111506000D02*
X146018000Y-116103686D01*
X139954000Y-111506000D02*
X141420314Y-111506000D01*
%TO.N,/~{IR1_EN}*%
X139954000Y-103886000D02*
X144002000Y-103886000D01*
%TO.N,/SPI_CD*%
X154940000Y-98806000D02*
X160274000Y-98806000D01*
%TO.N,/SD_DAT1*%
X154702000Y-103108000D02*
X156464000Y-101346000D01*
%TO.N,/~{IR2_EN}*%
X161798000Y-110490000D02*
X160274000Y-108966000D01*
%TO.N,/SPI_CD*%
X146050000Y-111760000D02*
X151130000Y-106680000D01*
D28*
%TO.N,VCC*%
X139954000Y-86106000D02*
X139954000Y-83566000D01*
D27*
%TO.N,/SPI_CD*%
X151130000Y-106680000D02*
X151130000Y-102616000D01*
X151130000Y-102616000D02*
X154940000Y-98806000D01*
%TO.N,/IR2_RX*%
X165734612Y-117569000D02*
X166370000Y-117569000D01*
%TO.N,/SD_DAT1*%
X154702000Y-103378000D02*
X154702000Y-103108000D01*
%TO.N,/SPI_CD*%
X146050000Y-114046000D02*
X146050000Y-111760000D01*
%TO.N,/SD_DAT1*%
X156464000Y-101346000D02*
X160274000Y-101346000D01*
%TO.N,/SPI_SCK*%
X140716000Y-110236000D02*
X147320000Y-116840000D01*
%TO.N,/IR2_RX*%
X160274000Y-111506000D02*
X160274000Y-112108388D01*
%TO.N,/~{IR2_EN}*%
X165535000Y-116619000D02*
X161798000Y-112882000D01*
X156702000Y-117094000D02*
X158750000Y-115046000D01*
%TO.N,/IR2_RX*%
X160274000Y-112108388D02*
X165734612Y-117569000D01*
%TO.N,/IR2_TX*%
X160381500Y-114046000D02*
X164854500Y-118519000D01*
%TO.N,/IR1_RX*%
X140488557Y-117856000D02*
X141261500Y-117083057D01*
%TO.N,/IR2_TX*%
X164854500Y-118519000D02*
X166370000Y-118519000D01*
%TO.N,/IR1_RX*%
X138209000Y-116619000D02*
X139446000Y-117856000D01*
X139446000Y-117856000D02*
X140488557Y-117856000D01*
X141261500Y-117083057D02*
X141261500Y-115353500D01*
X141261500Y-115353500D02*
X139954000Y-114046000D01*
%TO.N,/SPI_MISO*%
X146018000Y-116103686D02*
X146018000Y-117094000D01*
%TO.N,/SPI_MOSI*%
X139954000Y-108966000D02*
X140011686Y-108966000D01*
%TO.N,/SPI_SCK*%
X139954000Y-106426000D02*
X138684000Y-107696000D01*
X138684000Y-107696000D02*
X138684000Y-109506779D01*
X138684000Y-109506779D02*
X139413221Y-110236000D01*
X139413221Y-110236000D02*
X140716000Y-110236000D01*
X147320000Y-116840000D02*
X147320000Y-117348000D01*
%TO.N,/~{IR1_EN}*%
X144002000Y-103886000D02*
X144018000Y-103902000D01*
D28*
%TO.N,VCC*%
X139954000Y-83566000D02*
X144780000Y-83566000D01*
D27*
%TO.N,/SPI_MOSI*%
X150418000Y-119372314D02*
X150418000Y-120100000D01*
X154702000Y-110236000D02*
X149098000Y-115840000D01*
X149098000Y-115840000D02*
X149098000Y-116586000D01*
X148364843Y-117319157D02*
X148999843Y-117954157D01*
X149098000Y-116586000D02*
X148364843Y-117319157D01*
X148999843Y-117954157D02*
X150418000Y-119372314D01*
%TO.N,/SD_DAT2*%
X155702000Y-113808000D02*
X154702000Y-114808000D01*
X155702000Y-113792000D02*
X155702000Y-113808000D01*
X152618000Y-116892000D02*
X154702000Y-114808000D01*
X152618000Y-120100000D02*
X152618000Y-116892000D01*
%TO.N,/IR1_TX*%
X145669000Y-111125000D02*
X150622000Y-106172000D01*
X150622000Y-78232000D02*
X151539000Y-77315000D01*
X151539000Y-77315000D02*
X151539000Y-76200000D01*
X150622000Y-106172000D02*
X150622000Y-78232000D01*
%TO.N,/IR1_RX*%
X150589000Y-77503000D02*
X150589000Y-76200000D01*
X145669000Y-110109000D02*
X150114000Y-105664000D01*
X150114000Y-105664000D02*
X150114000Y-77978000D01*
X150114000Y-77978000D02*
X150589000Y-77503000D01*
D28*
%TO.N,VCC*%
X163846000Y-121957500D02*
X163808500Y-121920000D01*
D27*
X144018000Y-105902000D02*
X143272000Y-105156000D01*
D28*
X144780000Y-83566000D02*
X144796000Y-83566000D01*
X154702000Y-120066000D02*
X154702000Y-117094000D01*
X156702000Y-107950000D02*
X156702000Y-105664000D01*
X136419500Y-112230500D02*
X136382000Y-112268000D01*
X156702000Y-105664000D02*
X156702000Y-103378000D01*
X149352000Y-120066000D02*
X149318000Y-120100000D01*
X154702000Y-117094000D02*
X154702000Y-116808000D01*
X149318000Y-121400000D02*
X146512000Y-124206000D01*
X160528000Y-123973500D02*
X163613500Y-123973500D01*
X163846000Y-124206000D02*
X163846000Y-121957500D01*
X146512000Y-124206000D02*
X137922000Y-124206000D01*
X153368000Y-121400000D02*
X153658000Y-121400000D01*
X153658000Y-121400000D02*
X156231500Y-123973500D01*
X144796000Y-83566000D02*
X146320000Y-82042000D01*
X163613500Y-123973500D02*
X163846000Y-124206000D01*
X154702000Y-116808000D02*
X156702000Y-114808000D01*
X156231500Y-123973500D02*
X160528000Y-123973500D01*
X163808500Y-120417500D02*
X163830000Y-120396000D01*
X163830000Y-108712000D02*
X163830000Y-109966000D01*
X163808500Y-121920000D02*
X163808500Y-120417500D01*
X151870500Y-83333500D02*
X151638000Y-83566000D01*
X136419500Y-109982000D02*
X137922000Y-109982000D01*
X156702000Y-112522000D02*
X156702000Y-110236000D01*
X153368000Y-121400000D02*
X154702000Y-120066000D01*
X149318000Y-120100000D02*
X149318000Y-121400000D01*
X136419500Y-109982000D02*
X136419500Y-112230500D01*
X156702000Y-110236000D02*
X156702000Y-107950000D01*
D27*
X143272000Y-105156000D02*
X137922000Y-105156000D01*
D28*
X163830000Y-109966000D02*
X163846000Y-109982000D01*
X137922000Y-124206000D02*
X136382000Y-124206000D01*
X151870500Y-82042000D02*
X151870500Y-83333500D01*
X156702000Y-114808000D02*
X156702000Y-112522000D01*
X149318000Y-121400000D02*
X153368000Y-121400000D01*
X151908000Y-82004500D02*
X151870500Y-82042000D01*
X151908000Y-79756000D02*
X151908000Y-82004500D01*
%TO.N,GND*%
X157966500Y-121898500D02*
X157218000Y-121150000D01*
X166370000Y-112754500D02*
X165883500Y-112268000D01*
X150114000Y-130048000D02*
X143270000Y-130048000D01*
X142618000Y-121400000D02*
X141236000Y-121400000D01*
X157466000Y-130048000D02*
X150114000Y-130048000D01*
X153945500Y-82042000D02*
X155194000Y-82042000D01*
X147118000Y-120100000D02*
X147118000Y-121050000D01*
X146282500Y-79756000D02*
X145034000Y-79756000D01*
X146768000Y-121400000D02*
X142618000Y-121400000D01*
X166370000Y-114719000D02*
X166370000Y-112754500D01*
X141236000Y-121400000D02*
X141224000Y-121412000D01*
X134344500Y-121920000D02*
X134344500Y-120396000D01*
X134344500Y-119955500D02*
X133858000Y-119469000D01*
X143270000Y-130048000D02*
X142618000Y-130700000D01*
X147118000Y-121050000D02*
X146768000Y-121400000D01*
X147739000Y-76200000D02*
X147739000Y-77305000D01*
X160528000Y-121898500D02*
X157966500Y-121898500D01*
X158118000Y-130700000D02*
X157466000Y-130048000D01*
X134344500Y-120396000D02*
X134344500Y-119955500D01*
X147739000Y-77305000D02*
X147574000Y-77470000D01*
D27*
%TO.N,/SPI_SCK*%
X147320000Y-117348000D02*
X148218000Y-118246000D01*
X148218000Y-118246000D02*
X148218000Y-120100000D01*
X148336000Y-114316000D02*
X148336000Y-116332000D01*
X154702000Y-107950000D02*
X148336000Y-114316000D01*
%TO.N,/~{IR1_EN}*%
X145034000Y-104918000D02*
X144018000Y-103902000D01*
X149639000Y-76200000D02*
X149639000Y-98281000D01*
X149639000Y-98281000D02*
X144018000Y-103902000D01*
X145034000Y-113030000D02*
X145034000Y-104918000D01*
%TO.N,/SPI_MISO*%
X154702000Y-105664000D02*
X147574000Y-112792000D01*
X147574000Y-112792000D02*
X147574000Y-115570000D01*
X146018000Y-117094000D02*
X146018000Y-120100000D01*
%TO.N,/SPI_CD*%
X143818000Y-116278000D02*
X144526000Y-115570000D01*
X143818000Y-120100000D02*
X143818000Y-116278000D01*
%TO.N,/SD_DAT1*%
X144918000Y-116702000D02*
X145288000Y-116332000D01*
X146812000Y-114808000D02*
X146812000Y-111760000D01*
X144918000Y-120100000D02*
X144918000Y-116702000D01*
X146812000Y-111760000D02*
X154702000Y-103870000D01*
X154702000Y-103870000D02*
X154702000Y-103378000D01*
%TO.N,/SPI_CS*%
X151518000Y-115706000D02*
X154702000Y-112522000D01*
X151518000Y-120100000D02*
X151518000Y-115706000D01*
D28*
%TO.N,Net-(U1-VCC)*%
X148689000Y-79424500D02*
X148357500Y-79756000D01*
X148357500Y-79756000D02*
X148357500Y-82004500D01*
X148689000Y-76200000D02*
X148689000Y-79424500D01*
X148357500Y-82004500D02*
X148320000Y-82042000D01*
%TO.N,Net-(U3-VCC)*%
X165846000Y-109982000D02*
X163808500Y-112019500D01*
X166370000Y-115669000D02*
X165465000Y-115669000D01*
X163808500Y-112019500D02*
X163808500Y-112268000D01*
X163808500Y-114012500D02*
X163808500Y-112268000D01*
X165465000Y-115669000D02*
X163808500Y-114012500D01*
%TO.N,Net-(U1-IRED)*%
X152489000Y-78337000D02*
X153908000Y-79756000D01*
X152489000Y-76200000D02*
X152489000Y-78337000D01*
%TO.N,Net-(U3-IRED)*%
X166921000Y-120020000D02*
X166370000Y-119469000D01*
X165846000Y-124206000D02*
X166921000Y-123131000D01*
X166921000Y-123131000D02*
X166921000Y-120020000D01*
%TO.N,Net-(U2-VCC)*%
X134382000Y-124206000D02*
X134382000Y-123957500D01*
X136419500Y-120065500D02*
X136419500Y-121920000D01*
X134873000Y-118519000D02*
X136419500Y-120065500D01*
X134382000Y-123957500D02*
X136419500Y-121920000D01*
X133858000Y-118519000D02*
X134873000Y-118519000D01*
%TO.N,Net-(U2-IRED)*%
X134382000Y-114195000D02*
X133858000Y-114719000D01*
X134382000Y-112268000D02*
X134382000Y-114195000D01*
%TD*%
M02*
