%TF.GenerationSoftware,KiCad,Pcbnew,8.0.8*%
%TF.CreationDate,2025-02-11T14:17:18-06:00*%
%TF.ProjectId,IR Demo FeatherWing,49522044-656d-46f2-9046-656174686572,rev?*%
%TF.SameCoordinates,Original*%
%TF.FileFunction,Soldermask,Top*%
%TF.FilePolarity,Negative*%
%FSLAX46Y46*%
G04 Gerber Fmt 4.6, Leading zero omitted, Abs format (unit mm)*
G04 Created by KiCad (PCBNEW 8.0.8) date 2025-02-11 14:17:18*
%MOMM*%
%LPD*%
G01*
G04 APERTURE LIST*
G04 Aperture macros list*
%AMRoundRect*
0 Rectangle with rounded corners*
0 $1 Rounding radius*
0 $2 $3 $4 $5 $6 $7 $8 $9 X,Y pos of 4 corners*
0 Add a 4 corners polygon primitive as box body*
4,1,4,$2,$3,$4,$5,$6,$7,$8,$9,$2,$3,0*
0 Add four circle primitives for the rounded corners*
1,1,$1+$1,$2,$3*
1,1,$1+$1,$4,$5*
1,1,$1+$1,$6,$7*
1,1,$1+$1,$8,$9*
0 Add four rect primitives between the rounded corners*
20,1,$1+$1,$2,$3,$4,$5,0*
20,1,$1+$1,$4,$5,$6,$7,0*
20,1,$1+$1,$6,$7,$8,$9,0*
20,1,$1+$1,$8,$9,$2,$3,0*%
G04 Aperture macros list end*
%ADD10C,1.000000*%
%ADD11R,0.700000X1.600000*%
%ADD12R,1.200000X1.800000*%
%ADD13R,1.200000X2.200000*%
%ADD14R,1.600000X1.500000*%
%ADD15R,1.700000X1.700000*%
%ADD16O,1.700000X1.700000*%
%ADD17RoundRect,0.250000X0.337500X0.475000X-0.337500X0.475000X-0.337500X-0.475000X0.337500X-0.475000X0*%
%ADD18C,2.700000*%
%ADD19RoundRect,0.250000X-0.350000X-0.450000X0.350000X-0.450000X0.350000X0.450000X-0.350000X0.450000X0*%
%ADD20RoundRect,0.250000X-0.337500X-0.475000X0.337500X-0.475000X0.337500X0.475000X-0.337500X0.475000X0*%
%ADD21RoundRect,0.250000X0.350000X0.450000X-0.350000X0.450000X-0.350000X-0.450000X0.350000X-0.450000X0*%
%ADD22C,1.800000*%
%ADD23RoundRect,0.250000X0.475000X-0.337500X0.475000X0.337500X-0.475000X0.337500X-0.475000X-0.337500X0*%
%ADD24RoundRect,0.250000X0.450000X-0.350000X0.450000X0.350000X-0.450000X0.350000X-0.450000X-0.350000X0*%
%ADD25R,0.640000X1.270000*%
%ADD26R,1.270000X0.640000*%
G04 APERTURE END LIST*
D10*
%TO.C,J3*%
X145418000Y-131100000D03*
X153418000Y-131100000D03*
D11*
X152618000Y-120100000D03*
X151518000Y-120100000D03*
X150418000Y-120100000D03*
X149318000Y-120100000D03*
X148218000Y-120100000D03*
X147118000Y-120100000D03*
X146018000Y-120100000D03*
X144918000Y-120100000D03*
X143818000Y-120100000D03*
D12*
X142618000Y-121400000D03*
D13*
X142618000Y-130700000D03*
D14*
X157218000Y-121150000D03*
D13*
X158118000Y-130700000D03*
%TD*%
D15*
%TO.C,J2*%
X134874000Y-86106000D03*
D16*
X134874000Y-88646000D03*
X134874000Y-91186000D03*
X134874000Y-93726000D03*
X134874000Y-96266000D03*
X134874000Y-98806000D03*
X134874000Y-101346000D03*
X134874000Y-103886000D03*
%TD*%
D15*
%TO.C,J1*%
X165354000Y-91186000D03*
D16*
X165354000Y-93726000D03*
X165354000Y-96266000D03*
X165354000Y-98806000D03*
X165354000Y-101346000D03*
X165354000Y-103886000D03*
%TD*%
D17*
%TO.C,C4*%
X136419500Y-109982000D03*
X134344500Y-109982000D03*
%TD*%
D18*
%TO.C,H4*%
X165100000Y-130302000D03*
%TD*%
D19*
%TO.C,R3*%
X151908000Y-79756000D03*
X153908000Y-79756000D03*
%TD*%
D20*
%TO.C,C6*%
X163808500Y-121920000D03*
X165883500Y-121920000D03*
%TD*%
D21*
%TO.C,R12*%
X156702000Y-103378000D03*
X154702000Y-103378000D03*
%TD*%
%TO.C,R9*%
X156702000Y-110236000D03*
X154702000Y-110236000D03*
%TD*%
D19*
%TO.C,R14*%
X154702000Y-117094000D03*
X156702000Y-117094000D03*
%TD*%
D18*
%TO.C,H3*%
X135128000Y-130302000D03*
%TD*%
D21*
%TO.C,R4*%
X136382000Y-112268000D03*
X134382000Y-112268000D03*
%TD*%
D17*
%TO.C,C1*%
X148357500Y-79756000D03*
X146282500Y-79756000D03*
%TD*%
D22*
%TO.C,A1*%
X160274000Y-91186000D03*
X160274000Y-93726000D03*
X160274000Y-96266000D03*
X160274000Y-98806000D03*
X160274000Y-101346000D03*
X160274000Y-103886000D03*
X160274000Y-106426000D03*
X160274000Y-108966000D03*
X160274000Y-111506000D03*
X160274000Y-114046000D03*
X160274000Y-116586000D03*
X160274000Y-119126000D03*
X139954000Y-119126000D03*
X139954000Y-116586000D03*
X139954000Y-114046000D03*
X139954000Y-111506000D03*
X139954000Y-108966000D03*
X139954000Y-106426000D03*
X139954000Y-103886000D03*
X139954000Y-101346000D03*
X139954000Y-98806000D03*
X139954000Y-96266000D03*
X139954000Y-93726000D03*
X139954000Y-91186000D03*
X139954000Y-88646000D03*
X139954000Y-86106000D03*
X139954000Y-83566000D03*
X139954000Y-81026000D03*
%TD*%
D23*
%TO.C,C7*%
X160528000Y-123973500D03*
X160528000Y-121898500D03*
%TD*%
D20*
%TO.C,C5*%
X163808500Y-112268000D03*
X165883500Y-112268000D03*
%TD*%
%TO.C,C3*%
X151870500Y-82042000D03*
X153945500Y-82042000D03*
%TD*%
D21*
%TO.C,R2*%
X136382000Y-124206000D03*
X134382000Y-124206000D03*
%TD*%
%TO.C,R8*%
X156702000Y-112522000D03*
X154702000Y-112522000D03*
%TD*%
D19*
%TO.C,R13*%
X163846000Y-124206000D03*
X165846000Y-124206000D03*
%TD*%
D21*
%TO.C,R11*%
X156702000Y-105664000D03*
X154702000Y-105664000D03*
%TD*%
D24*
%TO.C,R5*%
X144018000Y-105902000D03*
X144018000Y-103902000D03*
%TD*%
D25*
%TO.C,U1*%
X152489000Y-76200000D03*
X151539000Y-76200000D03*
X150589000Y-76200000D03*
X149639000Y-76200000D03*
X148689000Y-76200000D03*
X147739000Y-76200000D03*
%TD*%
D18*
%TO.C,H2*%
X165100000Y-77470000D03*
%TD*%
D17*
%TO.C,C2*%
X136419500Y-121920000D03*
X134344500Y-121920000D03*
%TD*%
D19*
%TO.C,R6*%
X163846000Y-109982000D03*
X165846000Y-109982000D03*
%TD*%
D18*
%TO.C,H1*%
X135128000Y-77470000D03*
%TD*%
D21*
%TO.C,R7*%
X156702000Y-114808000D03*
X154702000Y-114808000D03*
%TD*%
D19*
%TO.C,R1*%
X146320000Y-82042000D03*
X148320000Y-82042000D03*
%TD*%
D21*
%TO.C,R10*%
X156702000Y-107950000D03*
X154702000Y-107950000D03*
%TD*%
D26*
%TO.C,U3*%
X166370000Y-119469000D03*
X166370000Y-118519000D03*
X166370000Y-117569000D03*
X166370000Y-116619000D03*
X166370000Y-115669000D03*
X166370000Y-114719000D03*
%TD*%
%TO.C,U2*%
X133858000Y-114719000D03*
X133858000Y-115669000D03*
X133858000Y-116619000D03*
X133858000Y-117569000D03*
X133858000Y-118519000D03*
X133858000Y-119469000D03*
%TD*%
M02*
